<?xml version="1.0" standalone="no"?><!DOCTYPE svg PUBLIC "-//W3C//DTD SVG 1.1//EN" "http://www.w3.org/Graphics/SVG/1.1/DTD/svg11.dtd"><svg class="icon" height="512" viewBox="0 0 1024 1024" version="1.1" xmlns="http://www.w3.org/2000/svg"><path d="M1008.83749 424.585079A50.987068 50.987068 0 0 1 1023.836698 460.726514v358.49642A204.562572 204.562572 0 0 1 819.274126 1023.836698H460.726514a50.884684 50.884684 0 0 1-34.708064-14.077755A50.731108 50.731108 0 0 1 409.534679 972.644863c0-28.155509 23.036326-51.191835 51.191835-51.191835h358.547612A102.230094 102.230094 0 0 0 921.453028 819.222934V460.726514c0-28.155509 23.036326-51.191835 51.191835-51.191835 14.077755 0 26.875713 5.733486 36.192627 15.0504zM563.110184 102.38367H204.562572A102.588437 102.588437 0 0 0 102.38367 204.972107V563.110184c0 28.155509-23.036326 51.191835-51.191835 51.191835a50.884684 50.884684 0 0 1-35.42475-14.538481A50.7823 50.7823 0 0 1 0 563.110184V204.972107A205.023299 205.023299 0 0 1 204.562572 0H563.110184c14.077755 0 26.875713 5.784677 36.141435 15.050399A50.935876 50.935876 0 0 1 614.302019 51.191835c0 28.155509-23.036326 51.191835-51.191835 51.191835z m102.588437 178.301161L935.530783 7.627583c13.66822-13.66822 63.733834-7.371624 77.350862 6.347788 13.10511 13.053918 15.203975 55.389565 2.150057 68.494675L742.793524 358.240461l76.275834 0.255959c19.145746 0 51.703753 15.664701 51.857329 50.731108C871.131455 444.345127 838.675831 460.726514 819.581277 460.726514h-205.176875C588.808485 460.726514 563.110184 436.154433 563.110184 409.227528l0.56311-205.279258c0-19.145746 11.466971-50.526341 50.679917-50.526341 39.264137 0 51.34541 31.892513 51.34541 50.475149v76.787753z m-307.560544 462.467036l-269.832162 273.057248c-13.66822 13.66822-63.733834 7.371624-77.350862-6.347788-13.10511-13.053918-15.203975-55.389565-2.150057-68.494675l272.238178-275.770415L204.76734 665.340278c-19.145746 0-51.703753-15.664701-51.857329-50.731108C152.705244 579.491571 185.160867 563.110184 204.255421 563.110184h205.176875c25.595917 0 51.294219 24.572081 51.294218 51.498986l-0.56311 205.279258c0 19.145746-11.466971 50.526341-50.679917 50.526341-39.264137 0-51.34541-31.892513-51.34541-50.475149v-76.787753z" fill="#272536" /></svg>